<svg width="31" height="38" viewBox="0 0 31 38" fill="none" xmlns="http://www.w3.org/2000/svg">
<path d="M15.285 17.235C13.665 17.585 12.665 18.875 12.665 20.595V22.895C12.665 24.735 12.185 26.465 11.275 27.885C10.375 29.295 9.20499 30.265 7.80499 30.765C7.73499 30.785 7.66497 30.805 7.59497 30.805M16.025 34.275C10.045 32.285 2.065 33.275 2.065 33.275V36.425H10.945V34.895L13.555 35.815C14.835 36.265 16.165 36.535 17.515 36.615C20.675 36.805 25.895 37.325 28.785 35.405C29.335 35.045 29.475 34.505 29.975 33.315C28.915 33.695 21.545 36.105 16.015 34.265L16.025 34.275ZM29.985 30.885C29.455 29.305 27.895 28.295 26.225 28.295H23.065C18.625 28.295 15.295 24.075 15.295 19.635V13.435H14.815C13.365 13.435 12.195 12.255 12.195 10.815V7.98502C12.195 6.53502 13.365 5.36502 14.815 5.36502H15.295V2.255H0.375C0.375 5.625 0.375 12.355 0.375 12.355C0.375 17.345 1.06499 20.335 2.05499 22.325C2.44499 23.115 2.53499 23.905 2.48499 24.565C2.43499 25.365 2.105 26.095 1.685 26.785C0.334998 28.995 2.05499 33.295 2.05499 33.295C2.05499 33.295 10.035 32.295 16.015 34.295C21.545 36.135 29.975 33.295 29.975 33.295C30.275 32.395 30.215 31.595 29.975 30.895L29.985 30.885ZM12.185 10.805C12.185 12.255 13.355 13.425 14.805 13.425H15.285V5.345H14.805C13.355 5.345 12.185 6.515 12.185 7.965V10.805ZM15.295 0.375H0.375V2.23502H15.295V0.375Z" stroke="black" stroke-width="0.75" stroke-linecap="round" stroke-linejoin="round"/>
</svg>
