<svg width="37" height="33" viewBox="0 0 37 33" fill="none" xmlns="http://www.w3.org/2000/svg">
<path d="M13.285 27.6599C15.255 27.9999 24.415 29.1999 27.915 29.1999M13.285 27.6599C12.135 27.4599 9.30499 27.2499 6.61499 27.0499M13.285 27.6599C15.245 27.9999 24.415 29.1999 27.915 29.1999M27.915 29.1999C31.415 29.1999 35.445 28.0499 35.785 26.9899C35.785 26.9899 34.875 23.6799 31.085 22.5299C27.295 21.3799 18.755 17.3499 18.755 17.3499C18.755 17.3499 18.565 3.6799 17.845 0.939895C17.845 0.939895 11.055 -0.160116 4.86499 0.709884C3.28499 0.929884 1.755 1.27988 0.375 1.79988C0.375 1.79988 2.58496 13.9899 2.58496 17.2499C2.58496 17.2499 0.594978 25.0899 1.91498 26.6699M27.915 29.1999L27.925 29.2198C31.425 29.2198 35.455 28.0699 35.795 27.0099V29.7899C35.795 29.7899 32.445 32.1399 27.355 32.1399C22.265 32.1399 16.175 31.0799 12.625 31.0799C10.875 31.0799 8.375 31.1499 6.185 31.0799C3.935 30.9999 2.02496 30.7699 1.58496 30.1099L1.77496 26.6599C1.81496 26.6699 1.86498 26.6699 1.91498 26.6699M1.91498 26.6699C3.03498 26.7899 4.78499 26.9199 6.61499 27.0499M1.91498 26.6699C3.03498 26.7799 4.78499 26.9099 6.61499 27.0499" stroke="black" stroke-width="0.75" stroke-linecap="round" stroke-linejoin="round"/>
</svg>
